<?xml version="1.0" encoding="UTF-8"?>
<svg xmlns="http://www.w3.org/2000/svg" viewBox="0 0 23.81 31.12">
  <defs>
    <style>
      .cls-1 {
        fill: #1f3327;
      }

      .cls-1, .cls-2 {
        stroke-width: 0px;
      }

      .cls-2 {
        fill: #588157;
      }
    </style>
  </defs>
  <g id="Layer_3" data-name="Layer 3">
    <path class="cls-2" d="M16.57,16.96c.15.17.34.32.7.61.25.2.36.27.44.23.17-.08-.04-.58.21-.79.12-.1.33-.11.47-.05.24.11.19.41.42.49.2.07.43-.08.44-.09.13-.09.1-.16.23-.28.16-.15.27-.1.44-.23.18-.13.26-.32.28-.37.14-.35-.07-.61.07-.72.12-.1.28.08.49-.02.12-.06.09-.13.28-.33.14-.15.22-.23.35-.26.23-.04.45.15.49.19.11.1.11.16.23.23.08.05.26.13.33.07.12-.1-.17-.49-.05-.61.11-.1.4.15.56.02.08-.06.03-.14.14-.42.06-.16.11-.27.21-.3.1-.04.17.03.26-.02.07-.05.11-.15.09-.23-.02-.13-.15-.14-.23-.26-.13-.19.06-.36,0-.72-.05-.32-.25-.55-.28-.58-.12-.13-.18-.14-.35-.33-.14-.16-.21-.23-.23-.35-.04-.15.03-.19.05-.51,0-.16.01-.25-.02-.33-.06-.13-.17-.21-.3-.3-.2-.14-.26-.12-.33-.21-.12-.17-.03-.43-.02-.44.11-.3.39-.26.47-.51.07-.23-.13-.34-.05-.58.07-.22.26-.21.3-.4.06-.25-.24-.53-.42-.7-.35-.32-.49-.25-.65-.51-.14-.22-.11-.37-.28-.47-.11-.06-.18-.03-.37-.12-.13-.06-.22-.1-.26-.19-.05-.11.02-.24.12-.42.12-.22.3-.44.33-.42.02.01-.05.21-.12.21-.07,0-.16-.26-.09-.47.04-.14.14-.23.16-.26.09-.09.12-.07.19-.14.08-.09.13-.24.09-.37-.03-.1-.1-.15-.23-.26-.08-.07-.2-.16-.35-.21-.39-.14-.62.09-.77-.05-.16-.15.07-.45-.12-.65-.1-.12-.3-.15-.44-.12-.22.05-.24.26-.42.26-.12,0-.26-.1-.28-.21-.02-.11.07-.14.09-.3.02-.12,0-.3-.12-.4-.07-.06-.11-.04-.37-.12-.21-.06-.32-.09-.37-.14-.16-.15-.05-.34-.19-.44-.19-.15-.6.06-.61.05,0-.01.17-.11.21-.07.05.06-.13.43-.42.44-.1,0-.22-.03-.3-.12-.09-.1-.05-.19-.14-.26-.02-.02-.08-.06-.28-.05-.29.02-.51.12-.51.12,0,0,.19-.1.21-.07.03.04-.16.28-.42.33-.06.01-.15.03-.23-.02-.1-.06-.13-.18-.14-.23-.03-.15.02-.28.05-.35.08-.19.17-.2.16-.28-.01-.17-.45-.39-.72-.26-.24.12-.15.43-.37.54-.24.12-.67-.06-.86-.35-.19-.28-.07-.51-.33-.77-.04-.04-.15-.15-.33-.21-.27-.09-.4.05-.63-.02-.27-.09-.27-.32-.42-.33-.33-.01-.45,1.09-.89,1.14-.31.04-.52-.46-.79-.37-.21.07-.15.38-.37.47-.24.09-.41-.23-.84-.26-.03,0-.48-.02-.7.26-.29.35.05.86-.21,1.07-.22.18-.57-.07-.72.12-.08.1-.05.27.02.61.06.29.11.32.14.54.03.22.07.5-.09.63-.15.12-.39.06-.42.05-.22-.06-.21-.21-.42-.28-.17-.06-.39-.04-.54.07-.16.13-.1.27-.23.4-.21.2-.73.15-1.03-.12-.36-.32-.2-.81-.47-.91-.21-.08-.33.2-.77.28-.47.08-.84-.15-.89-.05-.05.1.31.27.28.54-.01.14-.14.27-.26.33-.24.12-.46-.05-.54.05-.09.11.16.34.07.51-.08.15-.32.1-.35.21-.04.14.31.25.3.47,0,.15-.17.15-.35.42-.16.24-.09.33-.26.56-.15.2-.24.19-.26.3,0,.04-.02.18.42.63.27.28.4.35.37.42-.05.14-.61-.1-.91.19-.11.1-.2.29-.19.47,0,.04.01.06.07.28.08.31.08.33.07.35-.09.15-.61-.11-.72.05-.06.09.07.19.12.51.03.25-.01.45-.02.49-.06.27-.17.29-.19.51,0,.07-.02.27.09.42.08.11.15.08.3.21.09.08.22.19.26.35.04.2-.11.28-.05.42.05.13.18.09.35.26.12.12.17.25.21.35.09.24.04.3.14.47.09.15.15.11.21.23.09.19-.05.3,0,.58.02.11.04.23.14.3.12.1.22,0,.44.09.14.05.24.13.33.21.15.13.14.17.23.21.18.08.29-.03.4.05.16.1,0,.38.14.51.18.17.54-.18,1.03-.02.07.02.25.09.3.23.03.08,0,.14-.05.33-.09.33-.13.5-.07.56.1.1.35-.12.49,0,.08.07.03.17.14.3.02.03.07.07.21.14.25.12.38.19.47.16.22-.06.31,0,.64-.36.12-.13.27-.11.54-.25.34-.17.43.19.6.35.26.25.25.37.6.32.44-.07,2.04.18,2.42.85.87,1.53,1.73,1.06,2.05.42.47-.91,2.19-2.05,2.59-1.86.59.28.88-.38,1.27.06Z"/>
  </g>
  <g id="Layer_2" data-name="Layer 2">
    <path class="cls-1" d="M13.23,19.94c.02.77.67,5.26.54,5.81s1.61,2.75,2.38,4.39l-1.98-.23s-.89-.35.23.98c0,0-1.47,0-1.69-.03s-.03-.72-.26-.48c-.92.74-4.91.39-4.91.39,0,0,2.38-.67,2.77-3.36.39-2.7.11-5.57.11-5.57,0,0-.5-.39-.96-.91-.56-.63-.6-1.21-.8-1.73-.59-1.54-1.68-1.49-2.63-2.99-.35-.55-.74-1.41-.83-2.71,1,1.02.5,3.01,3.5,4.02.16-1.48.65-2.99.65-2.99.09,0,.49-.71.26-.02s-.34,3.61-.03,4.74c0,0,1.02,1.53,1.07,1.17.1-.71-.68-2.65-.69-6.67.06-.62.58,2.9.75,2.26,0,0,.28.01.74-2.03.45-.69.37.33.37.33,0,0-.79,2.1-.79,3.06,0,2.5,1.07,1.42,1.07,1.42,0,0,1.23-1.33,1.73-2.01.47-.63.74-.71.33-1.35,0,0-.14-.27-.61-1.12.09-.06.09-.25.33-.05.11.26.6,1.34.73,1.34.12,0,.19-.72.08-1.13s.31.07.35.3.25.83-.51,1.89c-.17.24,1.35-.29,1.77-.77s.7-2.15.7-2.15c.09-.46.74-.08.65.14,0,0-.3,1.53-.84,2.29s-2.94,1.23-3.22,1.94-.39,1.06-.37,1.83Z"/>
  </g>
</svg>